<svg id="Fondo_negro_letras_rojas" data-name="Fondo negro letras rojas" xmlns="http://www.w3.org/2000/svg" viewBox="0 0 738.97 407.07"><defs><style>.cls-1{fill:#999;}.cls-2{fill:#c33;}</style></defs><title>logo_revista</title><g id="_" data-name="&amp;"><path class="cls-1" d="M506,316.08q6.59,0.28,10.27.28t10-.28a123,123,0,0,1-3.47,28.25A105.68,105.68,0,0,1,513,369.77q7.59,8.16,15.64,16.18t15.12,15.34q-9.29-.28-14-0.28-5.89,0-13.35.28l-19-19.12q-4.58,4.22-7.92,6.89a73.37,73.37,0,0,1-8.31,5.62,61,61,0,0,1-11,5.06,81.68,81.68,0,0,1-13.74,3.38,97.77,97.77,0,0,1-15.84,1.27q-18.45,0-33-6.47T385.5,379.08a51.07,51.07,0,0,1-7.66-27.42,55.69,55.69,0,0,1,2-14.83,48,48,0,0,1,7.2-14.76,69.18,69.18,0,0,1,13.35-14A210.58,210.58,0,0,1,423,292.74q-9.42-14.62-12.83-24.39a56.24,56.24,0,0,1-3.4-18.49,42.67,42.67,0,0,1,3.6-16.87A42.16,42.16,0,0,1,421,218.15,41.65,41.65,0,0,1,437.33,209a67.41,67.41,0,0,1,19.3-2.74A82.15,82.15,0,0,1,471,207.61a125,125,0,0,1,17.86,4.85q0,14,.26,20.11a62.48,62.48,0,0,0-14.27-6.82,43.68,43.68,0,0,0-12.7-1.9,38.06,38.06,0,0,0-17,3.73,26.42,26.42,0,0,0-11.65,10.91,30.16,30.16,0,0,0-4.06,15.06,40.31,40.31,0,0,0,1.51,10.69,64.71,64.71,0,0,0,5.82,13.37,199.94,199.94,0,0,0,17.8,26.45q9.82,12.67,21.73,25.47,4.58,5.07,22.64,23.78a80.86,80.86,0,0,0,3-7.79,78.38,78.38,0,0,0,1.8-7.87q1-5.13,1.48-10.25T506,316.08Zm-20.42,51.74q-16.36-16.73-28.27-30.3t-24.34-29.6A205.77,205.77,0,0,0,415.86,320a51,51,0,0,0-9.92,10.53,34.46,34.46,0,0,0-5.19,10.6,39.25,39.25,0,0,0-1.31,10,32.71,32.71,0,0,0,5.51,18.53,35.05,35.05,0,0,0,15.6,12.7,56.63,56.63,0,0,0,22.94,4.42,64.69,64.69,0,0,0,14.48-1.6,52.35,52.35,0,0,0,12.19-4.26,36.73,36.73,0,0,0,8.26-5.51A94.3,94.3,0,0,0,485.56,367.83Z" transform="translate(-112.94 -156.94)"/></g><g id="E"><path class="cls-2" d="M336.18,453.21H112.94V417.12l15.51-1.34q13.63-1.34,13.63-12.47V196.14l-26.79-1.34V156.94H330.54v74L282.6,234V216.19q0-7.57-2.35-10.69T269,202.38H199.42v76.18H308V324H199.42v83.31h75.67q8.46,0,10.81-3.34t2.35-10.92V370.79l47.94,3.12v79.3Z" transform="translate(-112.94 -156.94)"/></g><g id="EXPORTACIONES_Y_NEGOCIOS" data-name="EXPORTACIONES Y NEGOCIOS"><path class="cls-1" d="M140.51,562.95H113.75v-6.6l1.86-.24q1.63-.24,1.63-2.28V515.94l-3.21-.25v-6.92h25.8v13.52l-5.75.57V519.6a4.81,4.81,0,0,0-.28-2,1.37,1.37,0,0,0-1.35-.57h-8.34V531h13v8.31h-13v15.24h9.07a1.28,1.28,0,0,0,1.3-.61,5.13,5.13,0,0,0,.28-2v-4.07l5.75,0.57v14.5Z" transform="translate(-112.94 -156.94)"/><path class="cls-1" d="M172.11,518.22l-8.05,15.72,9.86,21.51,3.55,0.33v7.17H161.8v-6.68l1.69-.24a1.76,1.76,0,0,0,1.46-1.1,2.35,2.35,0,0,0-.11-2l-5.07-11.32-6.48,14.18L156,556v6.92H143v-6.6l1.75-.24q1.07-.24,2.14-2.61l9.13-18.9-8.56-18.25-3.1-.41v-7.17h14.93v6.68l-1.41.24a1.64,1.64,0,0,0-1.49,1.14,3,3,0,0,0,.25,2.2l3.77,8.55,5.46-11.65-2.82-.25v-6.92H176v6.6l-1.75.24Q173.18,515.85,172.11,518.22Z" transform="translate(-112.94 -156.94)"/><path class="cls-1" d="M179.54,562.95v-6.6l1.86-.24q1.63-.24,1.63-2.28V515.94l-3.21-.25v-6.92h16.11q6.31,0,9.83,4.28t3.52,12.83q0,8.55-4,13.32A13.14,13.14,0,0,1,194.69,544h-4.79v11.81l5.41,0.25v6.92H179.54Zm10.36-26.89H194q8.22,0,8.22-9.7,0-5.87-2.11-7.78t-6.73-1.91h-3.44v19.39Z" transform="translate(-112.94 -156.94)"/><path class="cls-1" d="M230.43,507.79q6.67,0,11.18,6.84t4.51,20.9q0,14.06-4.48,21.26T229.53,564q-7.63,0-12-7.17T213.23,536a51,51,0,0,1,1.52-13.16,23.93,23.93,0,0,1,4-8.76Q223.76,507.79,230.43,507.79Zm-10.17,27.78q0,20.21,9.69,20.21,5.18,0,7.27-6.19a40.66,40.66,0,0,0,1.92-13.36,47.56,47.56,0,0,0-1.69-13,11.45,11.45,0,0,0-2.9-5.13,7,7,0,0,0-5-1.87,6.53,6.53,0,0,0-5.32,2.93,17.22,17.22,0,0,0-3.07,7.09A47.25,47.25,0,0,0,220.27,535.57Z" transform="translate(-112.94 -156.94)"/><path class="cls-1" d="M250.18,562.95v-6.6l1.86-.24q1.63-.24,1.63-2.28V515.94l-3.21-.25v-6.92h15.38q6.53,0,10,3.5t3.49,11.49a18.58,18.58,0,0,1-2,9.13,13.44,13.44,0,0,1-4.76,5.21q2,1.06,3.21,5l4.06,12.79,3.21,0.16v6.92H269.16v-6.6l1.63-.24a1.38,1.38,0,0,0,1.3-1.47,3.59,3.59,0,0,0-.23-1.14l-2.65-8.15a8,8,0,0,0-1.38-2.89,2.75,2.75,0,0,0-2.17-.86h-5.13v14.18L264.2,556v6.92h-14Zm10.36-29.09h4.9q6.93,0,6.93-9,0-5.13-1.83-6.68t-5.89-1.55h-4.11v17.19Z" transform="translate(-112.94 -156.94)"/><path class="cls-1" d="M294.22,553.82v-37h-4.39q-1.3,0-1.3,2.53v3.83l-5.75-.57V508.77h29.46v13.85l-5.75.57v-3.83a4.83,4.83,0,0,0-.28-2,1.37,1.37,0,0,0-1.35-.57H301v38.94l4.45,0.25v6.92H289.6v-6.6l3-.24Q294.22,555.86,294.22,553.82Z" transform="translate(-112.94 -156.94)"/><path class="cls-1" d="M313,553.82l9.07-38-3.55-.49v-6.6h12.9l11.49,47h0.06l3.21,0.25v6.92H331.62v-6.6l2.14-.24a1.89,1.89,0,0,0,1.3-.65,2.46,2.46,0,0,0,.06-1.79l-1.18-5.05H320.75l-1.69,7.17,3.38,0.25v6.92h-13v-6.6l1.86-.24Q312.47,555.94,313,553.82Zm14.36-35.93-5.24,23.22h10.48l-5.07-23.22h-0.17Z" transform="translate(-112.94 -156.94)"/><path class="cls-1" d="M371,517.4q-0.62-1.55-4.62-1.55-5.24,0-7.94,5.13t-2.7,14.83q0,20.13,10.42,20.12h1.49a6.06,6.06,0,0,0,2.51-.53,2.55,2.55,0,0,0,1.41-1.1,5.26,5.26,0,0,0,.23-1.79V546l5.75,0.57v14.09A17.9,17.9,0,0,1,366.38,564a14.71,14.71,0,0,1-13.15-7q-4.53-7-4.53-20.86a52.18,52.18,0,0,1,1.52-13.36,23.61,23.61,0,0,1,4.11-8.88q5.07-6.11,12.05-6.11A18.61,18.61,0,0,1,377,511.13V525l-5.75.57v-6.35A5.25,5.25,0,0,0,371,517.4Z" transform="translate(-112.94 -156.94)"/><path class="cls-1" d="M385.64,553.41V515.94l-3.21-.25v-6.92h13.63v6.6l-1.86.24q-1.63.24-1.63,2.61v37.56l3.21,0.25v6.92H382.15v-6.6l1.86-.24a1.92,1.92,0,0,0,1.24-.69A3.57,3.57,0,0,0,385.64,553.41Z" transform="translate(-112.94 -156.94)"/><path class="cls-1" d="M417.1,507.79q6.67,0,11.18,6.84t4.51,20.9q0,14.06-4.48,21.26T416.19,564q-7.63,0-12-7.17T399.89,536a51,51,0,0,1,1.52-13.16,23.93,23.93,0,0,1,4-8.76Q410.42,507.79,417.1,507.79Zm-10.17,27.78q0,20.21,9.69,20.21,5.18,0,7.27-6.19a40.66,40.66,0,0,0,1.92-13.36,47.56,47.56,0,0,0-1.69-13,11.45,11.45,0,0,0-2.9-5.13,7,7,0,0,0-5-1.87,6.53,6.53,0,0,0-5.32,2.93,17.22,17.22,0,0,0-3.07,7.09A47.25,47.25,0,0,0,406.93,535.57Z" transform="translate(-112.94 -156.94)"/><path class="cls-1" d="M436.84,562.95v-6.6l2-.24q1.46-.16,1.46-2.28V515.94l-3.21-.25v-6.92h10.14l15.94,37.4h0.11V515.94l-3.72-.25v-6.92h13.74v6.6l-2,.24q-1.35.16-1.35,2.53v44.81h-6.59l-16.28-38H447v30.8l3.66,0.25v6.92h-13.8Z" transform="translate(-112.94 -156.94)"/><path class="cls-1" d="M503.41,562.95H476.66v-6.6l1.86-.24q1.63-.24,1.63-2.28V515.94l-3.21-.25v-6.92h25.8v13.52l-5.74.57V519.6a4.81,4.81,0,0,0-.28-2,1.37,1.37,0,0,0-1.35-.57H487V531h13v8.31H487v15.24h9.07a1.28,1.28,0,0,0,1.3-.61,5.13,5.13,0,0,0,.28-2v-4.07l5.74,0.57v14.5Z" transform="translate(-112.94 -156.94)"/><path class="cls-1" d="M519.24,555.61q6.76,0,6.76-7.82a6.7,6.7,0,0,0-3-6,18.45,18.45,0,0,0-4.08-2.12,26.27,26.27,0,0,1-4.17-2,16.59,16.59,0,0,1-3.35-2.81q-3.32-3.58-3.32-11t3.58-11.73a11.6,11.6,0,0,1,9.35-4.28,18.83,18.83,0,0,1,10.73,3.34v12.22l-5.75.57v-4.73a5.26,5.26,0,0,0-.23-1.79q-0.62-1.55-4-1.55a6.5,6.5,0,0,0-5,1.71q-1.61,1.71-1.61,5.3a7.82,7.82,0,0,0,1.35,4.56,6.67,6.67,0,0,0,2.67,2.16q1.78,0.86,3.77,1.75a23,23,0,0,1,3.55,2,18.74,18.74,0,0,1,3.24,2.93q3.44,3.67,3.44,11.33t-3.8,12.06a12.6,12.6,0,0,1-10,4.4,19.54,19.54,0,0,1-11.18-3.34V547.79l5.75-.57v5a5.23,5.23,0,0,0,.23,1.79,2.52,2.52,0,0,0,1.38,1.1A9.23,9.23,0,0,0,519.24,555.61Z" transform="translate(-112.94 -156.94)"/><path class="cls-1" d="M558.84,553.82V542.25l-9.58-26.32-2.65-.25v-6.92h13.74v6.6l-1.69.24a1.23,1.23,0,0,0-1.16,1,3.71,3.71,0,0,0,.2,2.2L562.5,533h0.22L568.86,516l-2.82-.33v-6.92h12.11v6.6l-1.69.24q-1.07.16-1.92,2.44l-8.84,24.2v13.52L570.1,556v6.92H554.22v-6.6l3-.24Q558.84,555.94,558.84,553.82Z" transform="translate(-112.94 -156.94)"/><path class="cls-1" d="M591.51,562.95v-6.6l2-.24q1.46-.16,1.46-2.28V515.94l-3.21-.25v-6.92h10.14l15.94,37.4H618V515.94l-3.72-.25v-6.92H628v6.6l-2,.24q-1.35.16-1.35,2.53v44.81H618l-16.28-38h-0.11v30.8l3.66,0.25v6.92h-13.8Z" transform="translate(-112.94 -156.94)"/><path class="cls-1" d="M658.08,562.95H631.33v-6.6l1.86-.24q1.63-.24,1.63-2.28V515.94l-3.21-.25v-6.92h25.8v13.52l-5.75.57V519.6a4.81,4.81,0,0,0-.28-2,1.37,1.37,0,0,0-1.35-.57h-8.34V531h13v8.31h-13v15.24h9.07a1.28,1.28,0,0,0,1.3-.61,5.13,5.13,0,0,0,.28-2v-4.07l5.75,0.57v14.5Z" transform="translate(-112.94 -156.94)"/><path class="cls-1" d="M692.1,544v14.75a17.7,17.7,0,0,1-13,5.21q-7.77,0-12.14-7T662.59,536a50.32,50.32,0,0,1,1.1-11,30.24,30.24,0,0,1,2.87-8.07,20.35,20.35,0,0,1,4.14-5.3,15.36,15.36,0,0,1,10.22-3.83,18.74,18.74,0,0,1,10.67,3.34V525l-5.75.57v-6.35a5.24,5.24,0,0,0-.23-1.79q-0.62-1.55-5.12-1.55-10.87,0-10.87,19.47,0,20.53,9.8,20.53a8.4,8.4,0,0,0,6-2V541.76h-0.06l-4.34-.25v-6.92h14v6.52l-1.3.16a1.86,1.86,0,0,0-1.27.69A3.79,3.79,0,0,0,692.1,544Z" transform="translate(-112.94 -156.94)"/><path class="cls-1" d="M715.9,507.79q6.67,0,11.18,6.84t4.51,20.9q0,14.06-4.48,21.26T715,564q-7.63,0-12-7.17T698.69,536a51,51,0,0,1,1.52-13.16,23.93,23.93,0,0,1,4-8.76Q709.23,507.79,715.9,507.79Zm-10.17,27.78q0,20.21,9.69,20.21,5.18,0,7.27-6.19a40.66,40.66,0,0,0,1.92-13.36,47.6,47.6,0,0,0-1.69-13,11.46,11.46,0,0,0-2.9-5.13,7,7,0,0,0-5-1.87,6.53,6.53,0,0,0-5.32,2.93,17.22,17.22,0,0,0-3.07,7.09A47.22,47.22,0,0,0,705.74,535.57Z" transform="translate(-112.94 -156.94)"/><path class="cls-1" d="M758.4,517.4q-0.62-1.55-4.62-1.55-5.24,0-7.94,5.13t-2.7,14.83q0,20.13,10.42,20.12H755a6.05,6.05,0,0,0,2.51-.53,2.54,2.54,0,0,0,1.41-1.1,5.23,5.23,0,0,0,.23-1.79V546l5.75,0.57v14.09A17.9,17.9,0,0,1,753.78,564a14.71,14.71,0,0,1-13.15-7q-4.53-7-4.53-20.86a52.21,52.21,0,0,1,1.52-13.36,23.62,23.62,0,0,1,4.11-8.88q5.07-6.11,12.05-6.11a18.62,18.62,0,0,1,10.59,3.34V525l-5.75.57v-6.35A5.27,5.27,0,0,0,758.4,517.4Z" transform="translate(-112.94 -156.94)"/><path class="cls-1" d="M773,553.41V515.94l-3.21-.25v-6.92h13.63v6.6l-1.86.24q-1.63.24-1.63,2.61v37.56l3.21,0.25v6.92H769.55v-6.6l1.86-.24a1.92,1.92,0,0,0,1.24-.69A3.56,3.56,0,0,0,773,553.41Z" transform="translate(-112.94 -156.94)"/><path class="cls-1" d="M804.5,507.79q6.67,0,11.18,6.84t4.51,20.9q0,14.06-4.48,21.26T803.6,564q-7.63,0-12-7.17T787.29,536a51,51,0,0,1,1.52-13.16,23.93,23.93,0,0,1,4-8.76Q797.83,507.79,804.5,507.79Zm-10.17,27.78q0,20.21,9.69,20.21,5.18,0,7.27-6.19a40.66,40.66,0,0,0,1.92-13.36,47.6,47.6,0,0,0-1.69-13,11.46,11.46,0,0,0-2.9-5.13,7,7,0,0,0-5-1.87,6.53,6.53,0,0,0-5.32,2.93,17.22,17.22,0,0,0-3.07,7.09A47.22,47.22,0,0,0,794.33,535.57Z" transform="translate(-112.94 -156.94)"/><path class="cls-1" d="M835.45,555.61q6.76,0,6.76-7.82a6.7,6.7,0,0,0-3-6,18.45,18.45,0,0,0-4.08-2.12,26.27,26.27,0,0,1-4.17-2,16.59,16.59,0,0,1-3.35-2.81q-3.32-3.58-3.32-11t3.58-11.73a11.6,11.6,0,0,1,9.35-4.28A18.83,18.83,0,0,1,848,511.13v12.22l-5.75.57v-4.73a5.26,5.26,0,0,0-.23-1.79q-0.62-1.55-4-1.55a6.5,6.5,0,0,0-5,1.71q-1.61,1.71-1.61,5.3a7.82,7.82,0,0,0,1.35,4.56,6.67,6.67,0,0,0,2.67,2.16q1.78,0.86,3.77,1.75a23,23,0,0,1,3.55,2,18.74,18.74,0,0,1,3.24,2.93q3.44,3.67,3.44,11.33t-3.8,12.06a12.6,12.6,0,0,1-10,4.4,19.54,19.54,0,0,1-11.18-3.34V547.79l5.75-.57v5a5.23,5.23,0,0,0,.23,1.79,2.52,2.52,0,0,0,1.38,1.1A9.23,9.23,0,0,0,835.45,555.61Z" transform="translate(-112.94 -156.94)"/></g><g id="N"><path class="cls-2" d="M583.66,453.54V417.49l14.9-1.33q10.76-.89,10.76-12.46v-207l-23.6-1.34V157.56h74.51L777.39,361.85h0.83V196.73l-27.32-1.34V157.56h101v36.05L837,194.95q-9.93.9-9.94,13.8v244.8H778.64L659,246.13h-0.83V414.37l26.91,1.34v37.83H583.66Z" transform="translate(-112.94 -156.94)"/></g></svg>