<?xml version="1.0" encoding="utf-8"?>
<!-- Generator: Adobe Illustrator 19.2.1, SVG Export Plug-In . SVG Version: 6.00 Build 0)  -->
<svg version="1.1" id="Capa_1" xmlns="http://www.w3.org/2000/svg" xmlns:xlink="http://www.w3.org/1999/xlink" x="0px" y="0px"
	 viewBox="0 0 587.7 468.4" style="enable-background:new 0 0 587.7 468.4;" xml:space="preserve">
<style type="text/css">
	.st0{fill:#009933;}
	.st1{fill:#FF9933;}
	.st2{fill:#CC3333;}
</style>
<g>
	<title>x_camex</title>
	<path class="st0" d="M144.9,260.6c0,0,139.1-82.4,280.4,6.7c0,0-156.1-43.7-242.3,29.3L144.9,260.6z"/>
	<polygon class="st1" points="494.6,100.2 319.6,99.8 295.1,139.1 282.6,98.3 225.2,123.5 239.3,172.9 187.4,242.1 260,242.1 
		286.2,205.5 294.4,242.1 370.7,242.1 340.9,173.9 	"/>
	<ellipse class="st2" cx="302.3" cy="65.2" rx="25.5" ry="28.5"/>
</g>
<g>
	<path d="M110.9,358.6c-2.2,0-4.2-0.4-6.1-1.3c-2.5-1.2-3.7-2.9-3.7-5.2c0-3.6,3.2-6.6,9.7-9c5-1.9,9.5-2.8,13.5-2.8s6,1.6,6,4.8
		c0,1.8-1.4,3.5-4.3,5.2c-2.5,1.5-4.7,2.2-6.4,2.2c-1.1,0-1.6-0.5-1.6-1.6c0-0.7,0.4-1.4,1.3-2.1c0.8-0.7,1.5-1,2.1-1
		c0.3,0,0.5,0.1,0.5,0.4c0,0.1-0.2,0.3-0.7,0.6c-0.5,0.3-0.9,0.6-1,0.7c0.2,0.2,0.4,0.3,0.7,0.3c0.9,0,2.4-0.6,4.5-1.9
		c2.3-1.4,3.5-2.5,3.5-3.4c0-0.9-1.3-1.3-3.8-1.3c-2.8,0-6.2,0.6-10,1.8c-2.6,0.8-4.9,1.8-7.1,2.9c-3.5,1.8-5.3,3.5-5.3,5
		c0,1.9,2.4,3.2,7.3,4c2.8,0.4,5.9,0.7,9.3,0.7c0.7,0,1,0.3,1,1c0,1.2-1.1,1.8-3.4,1.9c-6.8,0.4-13.3,2.3-19.5,5.8
		c-6.3,3.6-9.5,7.2-9.5,10.8c0,3.5,2.5,5.3,7.4,5.3c2.9,0,5.8-0.8,8.5-2.4c1.9-1.1,3.7-2.6,5.5-4.5c1.6-1.6,2.4-2.4,2.4-2.4
		c0.4,0,0.6,0.6,0.6,1.8c0,2-1.8,4.2-5.4,6.8c-3.6,2.6-7.2,3.8-10.8,3.8c-6.7,0-10-3.2-10-9.7c0-4.2,2.4-7.8,7.1-10.9
		c3.2-2.1,7.1-3.7,11.7-4.9C106.3,359.4,108.3,359,110.9,358.6z"/>
	<path d="M126.5,369l-11.9,11.9c-2.5,2.4-4.6,3.7-6.4,3.7c-0.2,0-0.3-0.1-0.3-0.4c0-0.4,0.2-0.6,0.6-0.8c0.6-0.1,1.3-0.4,2.2-0.9
		c1.1-0.5,3.5-2.7,7.4-6.4c1.8-1.7,4.4-4.3,7.8-7.9c1.4-1.6,2.2-2.4,2.4-2.4c0.9,0,1.3,0.5,1.3,1.4c0,0.8-0.2,1.9-0.5,3.2l-0.8,3.1
		c1-1,2.6-2.4,4.6-4.3c2.4-2.2,3.8-3.3,4.1-3.3c0.4,0,0.5,0.2,0.5,0.7c0,0.4-0.4,0.9-1.3,1.5c-1,0.7-3.8,3.2-8.4,7.4
		c-1,4.1-1.5,6.5-1.5,7.1c0,0.5,0.3,0.8,0.8,0.9c0.6,0.1,0.8,0.3,0.8,0.6c0,0.4-0.5,0.7-1.4,0.7c-1.8,0-2.7-0.9-2.7-2.7
		c0-0.7,0.2-2,0.5-3.7l-3.9,3.4l-3.3,2.9c-0.3,0-0.4-0.1-0.4-0.4c0-0.3,1.2-1.6,3.7-3.9l4.4-4L126.5,369z"/>
	<path d="M145.2,369.6c-2.3,2.5-4.8,5.1-7.6,7.8l-4.7,4.4c-2.3,1.9-4.1,2.8-5.5,2.8c-0.2,0-0.3-0.1-0.3-0.4c0-0.4,0.2-0.6,0.7-0.7
		c0.6-0.1,1.3-0.4,2.3-1c1.1-0.6,3.4-2.6,6.9-5.9l6.5-6.6c3.7-3.8,5.7-5.6,6-5.6c0.6,0,1,0.4,1,1.3c0,0.3-0.9,1.9-2.6,4.8
		c2.1-2.1,3.7-3.2,5-3.2c1.4,0,2,0.9,2,2.7c0,2.3-1.1,4.9-3.2,7.8c-1.8,2.5-3.7,4.4-5.7,5.7c0.2,0.1,1.2,0.1,3.1,0.1
		c0.2,0,0.3,0.2,0.3,0.5c0,0.5-0.7,0.7-2,0.7c-1.1,0-2.1-0.2-2.8-0.6c-0.4,0.2-0.8,0.3-1.3,0.3c-1.7,0-2.5-1.5-2.4-4.5l-13.9,19.2
		c-0.3,0.5-0.6,0.7-0.9,0.7c-0.5,0-0.8-0.5-0.8-1.6c0-1,1.8-4,5.3-9l5.4-7.2L145.2,369.6z M143.2,382.3l-0.5-2.1
		c-0.3-1.1-0.5-1.7-0.6-1.7c-0.3,0-0.5,0.7-0.5,2.2c0,1.2,0.3,1.8,1,1.8C142.9,382.4,143.1,382.4,143.2,382.3z M144.3,381.8
		c2-1.4,3.9-3.5,5.6-6.3c1.7-2.8,2.6-4.7,2.6-5.6c0-0.6-0.3-0.9-0.8-0.9c-1,0-2.6,1.2-4.9,3.6c-1.6,1.7-3,3.5-4.3,5.2
		c0.5,0,0.9,0.5,1.1,1.6C143.9,380.8,144.2,381.6,144.3,381.8z"/>
	<path d="M160.5,376.1l-5.4,5c-2.7,2.3-4.8,3.5-6.2,3.5c-0.2,0-0.3-0.1-0.3-0.4c0-0.4,0.2-0.7,0.5-0.8c1.1-0.2,2-0.6,2.7-1.1
		c1.3-0.9,3.4-2.7,6.4-5.6l6.9-6.9c1.3-1.4,2.1-2.1,2.4-2.1c0.4,0,0.9,0.3,1.4,0.9c1-0.9,1.9-1.4,2.7-1.4c1.2,0,1.8,0.8,1.8,2.3
		c0,2.3-1.5,5.5-4.5,9.5c-3.1,4-5.6,6.1-7.5,6.1c-1.8,0-2.7-1.1-2.7-3.4C158.8,380.5,159.4,378.6,160.5,376.1z M166.8,372.2
		c-3.5,3.8-5.3,6.9-5.3,9.3c0,1,0.4,1.5,1.2,1.5c1.3,0,3.3-1.9,6.1-5.8c-1.5-0.4-2.2-1.6-2.2-3.5
		C166.6,373.2,166.6,372.7,166.8,372.2z M169.3,376.2c0.6-0.7,1.3-1.8,1.9-3c0.7-1.5,1.1-2.6,1.1-3.5c0-0.8-0.3-1.2-0.9-1.2
		c-0.9,0-1.7,0.7-2.6,2c-0.9,1.3-1.3,2.5-1.3,3.6C167.6,375.1,168.2,375.9,169.3,376.2z"/>
	<path d="M182.5,370.5c-0.1-0.7-0.1-1.1-0.1-1.3c0-0.6,0.6-1.5,1.7-2.7c1.1-1.2,1.9-1.8,2.3-1.8c0.4,0,0.6,0.2,0.6,0.7
		c0,0.4-0.2,1-0.7,1.9c2,0,2.9,1,2.9,2.9c0,1.5-1.3,3.9-3.8,7.2c-2.5,3.3-3.8,5.2-3.8,5.6c0,0.4,0.2,0.6,0.5,0.6l0.8,0
		c0.2,0,0.4,0.2,0.4,0.5c0,0.4-0.5,0.7-1.5,0.7c-1.3,0-1.9-0.7-1.9-2.1c0-1.4,0.6-3.1,1.9-5.2c0.8-1.3,2-2.9,3.6-4.8
		c1.3-1.6,1.9-2.4,1.9-2.6c0-0.3-0.1-0.5-0.4-0.5c-0.3,0-0.7,0.1-1.5,0.4c-0.7,0.2-1.2,0.4-1.3,0.6c-8.1,9.4-13.5,14.1-16.3,14.1
		c-0.2,0-0.3-0.1-0.3-0.4c0-0.4,0.2-0.6,0.7-0.7c0.6-0.1,1.3-0.5,2.3-1c1.4-0.8,3.5-2.6,6.3-5.4
		C179.2,374.5,181.1,372.3,182.5,370.5z"/>
	<path d="M203.8,363.8l-9.4,0.4c-0.5,0-0.8-0.2-0.8-0.5c0-0.3,0.4-0.5,1.3-0.6c1.2-0.2,2.9-0.4,5.1-0.6c2.4-0.2,4.1-0.3,5.1-0.5
		l3.7-5.5c2-2.9,3.2-4.3,3.6-4.3c0.5,0,0.8,0.4,0.8,1.2c0,0.9-1.6,3.7-4.7,8.6c1.8-0.1,3.3-0.2,4.5-0.2c0.8,0,1.2,0.2,1.2,0.6
		c0,0.4-1,0.7-2.9,0.9l-4,0.2l-5.8,8.9c-3.7,5.8-5.5,9.3-5.5,10.4c0,0.5,0.3,0.8,0.9,0.8s0.9,0.2,0.9,0.5c0,0.4-0.4,0.6-1.1,0.6
		c-1.5,0-2.3-0.8-2.3-2.3c0-1.2,0.5-2.9,1.5-5.2l2.3-4.7l-7.7,7.4c-3.2,3.1-5.7,4.7-7.4,4.7c-0.2,0-0.3-0.1-0.3-0.4
		c0-0.4,0.2-0.6,0.5-0.7c0.6-0.1,1.5-0.5,2.7-1.1c1.2-0.7,3.8-3,7.8-6.9c3-2.8,4.8-4.7,5.6-5.5C200.5,368.4,202.1,366.4,203.8,363.8
		z"/>
	<path d="M206.9,377.9c-4.6,4.5-7.8,6.7-9.6,6.7c-0.2,0-0.3-0.1-0.3-0.4c0-0.4,0.2-0.6,0.6-0.7c1.6-0.3,3.9-1.9,6.8-4.6l3.4-3.2
		l5.4-5.3c2.5-2.1,4.6-3.1,6.3-3.1c1.3,0,2,0.8,2.2,2.4c0.7-0.8,1.1-1.2,1.4-1.2c0.6,0,0.9,0.3,0.9,0.9c0,0.7-1.3,3-4,6.8
		s-4,6-4,6.7c0,0.4,0.3,0.7,0.9,0.7c0.6,0,0.9,0.2,0.9,0.6c0,0.4-0.6,0.7-1.8,0.7c-1.2,0-1.7-0.6-1.7-1.9c0-1,0.5-2.4,1.4-4.3
		l-3.2,3.4c-1.6,1.5-2.8,2.2-3.8,2.2c-1.5,0-2.2-0.9-2.2-2.8C206.3,380.3,206.5,379.1,206.9,377.9z M219.9,368.5
		c-1,0-3.1,1.9-6.4,5.6c-3.2,3.8-4.8,6.3-4.8,7.5c0,0.6,0.2,0.9,0.7,0.9c1,0,3.1-1.8,6.4-5.5c3.3-3.7,4.9-6.2,4.9-7.4
		C220.6,368.9,220.4,368.5,219.9,368.5z"/>
	<path d="M232,370.5c-0.1-0.7-0.1-1.1-0.1-1.3c0-0.6,0.6-1.5,1.7-2.7c1.1-1.2,1.9-1.8,2.3-1.8c0.4,0,0.6,0.2,0.6,0.7
		c0,0.4-0.2,1-0.7,1.9c2,0,2.9,1,2.9,2.9c0,1.5-1.3,3.9-3.8,7.2c-2.5,3.3-3.8,5.2-3.8,5.6c0,0.4,0.2,0.6,0.5,0.6l0.8,0
		c0.2,0,0.4,0.2,0.4,0.5c0,0.4-0.5,0.7-1.5,0.7c-1.3,0-1.9-0.7-1.9-2.1c0-1.4,0.6-3.1,1.9-5.2c0.8-1.3,2-2.9,3.6-4.8
		c1.3-1.6,1.9-2.4,1.9-2.6c0-0.3-0.1-0.5-0.4-0.5c-0.3,0-0.7,0.1-1.5,0.4c-0.7,0.2-1.2,0.4-1.3,0.6c-8.1,9.4-13.5,14.1-16.3,14.1
		c-0.2,0-0.3-0.1-0.3-0.4c0-0.4,0.2-0.6,0.7-0.7c0.6-0.1,1.3-0.5,2.3-1c1.4-0.8,3.5-2.6,6.3-5.4C228.7,374.5,230.6,372.3,232,370.5z
		"/>
	<path d="M255.5,379.4c-0.9,0.3-2.5,1.2-4.9,2.9c-2.1,1.5-3.7,2.2-4.8,2.2c-0.2,0-0.3-0.1-0.3-0.4c0-0.4,0.2-0.6,0.7-0.7
		c1.1-0.2,2.6-1,4.5-2.4c2.1-1.5,3.8-2.4,5.2-2.8c0.8-2.4,2.5-4.8,5-7.4c2.7-2.8,4.9-4.2,6.8-4.2c1.4,0,2.1,0.7,2.1,2.2
		c0,1.9-1.5,4-4.4,6.2c-2.2,1.7-4.4,3-6.6,3.9c-0.2,0.7-0.4,1.4-0.4,2.1c0,1.1,0.3,1.8,0.9,2.2c0.3,0.1,0.9,0.2,1.8,0.3
		c0.6,0,0.9,0.2,0.9,0.6c0,0.5-1.1,0.8-3.2,0.8c-2.3,0-3.4-1.2-3.4-3.6C255.3,380.7,255.4,380.1,255.5,379.4z M258.9,377.6
		c1.6-1,3.3-2.3,5.1-3.9c2.4-2.1,3.5-3.8,3.5-5.1c0-0.5-0.2-0.8-0.6-0.8c-1.1,0-2.7,1.3-4.6,3.8C260.6,374,259.5,376,258.9,377.6z"
		/>
	<path d="M269.8,379.1c-3.6,3.6-6.4,5.5-8.2,5.5c-0.2,0-0.3-0.1-0.3-0.4c0-0.4,0.2-0.6,0.5-0.8c0.6-0.2,1.6-0.6,3-1.3
		c1.3-0.8,4.4-3.8,9.5-9c4.8-4.9,7.3-7.4,7.5-7.4c0.4,0,0.8,0.2,1.2,0.6c0.4,0.4,0.6,0.9,0.6,1.4c0,1.5-1,4.3-3,8.2
		c-1.7,3.4-3.2,5.9-4.5,7.6c0.8,0,1.1,0.2,1.1,0.5c0,0.4-0.4,0.7-1.1,0.7c-0.2,0-0.5,0-0.9-0.1c-0.4-0.1-0.7-0.1-0.9-0.1
		c-0.1,0-0.3,0-0.6,0.1c-0.3,0.1-0.5,0.1-0.6,0.1C270.9,384.6,269.8,382.8,269.8,379.1z M273.1,382.9l-0.7-2.5
		c-0.4-1.2-0.8-1.9-1.1-1.9c-0.4,0-0.6,0.4-0.6,1.1c0,0.7,0.2,1.5,0.5,2.2c0.4,0.9,0.9,1.3,1.4,1.3
		C272.9,383.2,273,383.1,273.1,382.9z M273.9,382c1.2-1.2,2.6-3.4,4-6.4c1.4-2.8,2.3-5.3,2.8-7.5l-9.3,9.3c0.6,0.1,1.2,0.7,1.6,1.9
		L273.9,382z"/>
	<path d="M330.2,363.9c1.3-0.1,2.3-0.1,3-0.1c1,0,1.5,0.3,1.5,0.9c0,0.5-1.9,0.9-5.6,1.2c-4.4,7-7.3,11.5-8.9,13.6
		c-4.6,6-8.4,9-11.4,9c-1.1,0-1.9-0.3-2.7-1c-0.8-0.7-1.2-1.7-1.2-3c0-2.4,0.9-5,2.6-7.8c1.7-2.8,2.9-4.2,3.6-4.2
		c0.2,0,0.3,0.1,0.3,0.4c0,0.1-0.5,0.8-1.4,2.2c-1.1,1.7-1.9,3.1-2.5,4.4c-0.9,2-1.4,3.7-1.4,5.1c0,1.7,0.7,2.6,2.1,2.6
		c1,0,2.4-0.8,3.9-2.5c1.8-1.9,4-4.9,6.8-9l6.2-9.6c-2.3,0.1-5,0.5-8.3,1c-3.3,0.5-5,0.8-5.3,0.8c-0.6,0-0.9-0.3-0.9-0.8
		c0-0.4,0.2-0.7,0.6-1.1c0.4-0.3,2.8-0.7,7.1-1.2l8.1-0.8c5.8-9.3,10.4-15.4,13.8-18.5c-2.5-0.5-4.9-0.7-7.3-0.7
		c-3.8,0-7.5,0.6-10.9,1.8c-4,1.4-7.2,3.4-9.7,6.1l-2,3c-1,1.5-1.6,2.2-2,2.2c-0.6,0-0.9-0.4-0.9-1.1c0-1,1.6-4.1,4.9-9.1
		s5.2-7.6,5.8-7.6c0.6,0,0.9,0.3,0.9,1c0,0.4-0.3,0.9-0.9,1.7c-1.8,2.4-3.3,4.8-4.5,7c6.1-5.2,12.7-7.8,19.9-7.8
		c2.5,0,5.6,0.3,9.3,1c2.8-2.2,5.5-3.3,8.3-3.3c1.6,0,2.4,0.5,2.4,1.5c0,1.7-1.5,2.9-4.5,3.8c-2,0.6-4.1,0.9-6.2,0.9
		C339.5,349.3,335.2,355.4,330.2,363.9z M345.2,343.4c0.7,0.1,1.3,0.2,1.8,0.2c1,0,2-0.2,3.2-0.5c1.6-0.4,2.3-1,2.3-1.8
		c0-0.3-0.3-0.5-0.9-0.5C349.2,340.8,347.1,341.7,345.2,343.4z"/>
	<path d="M343.7,378.6c-3,3.6-5.2,5.4-6.7,5.4c-1.1,0-1.6-0.7-1.6-2.2c0-1.7,0.6-3.7,1.9-5.8l3.4-4.8l-7.5,7.6
		c-4.2,3.9-7.2,5.9-8.9,5.9c-0.2,0-0.3-0.1-0.3-0.4c0-0.4,0.3-0.6,0.8-0.7c0.6-0.1,1.4-0.5,2.3-1c1-0.6,3.1-2.4,6.4-5.6
		c1.5-1.4,3.7-3.7,6.6-6.7c0.5-0.6,1.3-1.5,2.3-2.5c0.4-0.3,0.8-0.5,1.2-0.5c1,0,1.5,0.4,1.5,1.2c0,0.8-1.2,2.9-3.6,6.2
		s-3.6,5.6-3.6,7.1c0,0.4,0.2,0.5,0.5,0.5c1,0,3.4-2.4,7-7.3s5.6-7.3,6.1-7.3c0.2,0,0.5,0.2,0.7,0.5s0.4,0.6,0.4,0.9
		c0,0.5-1.3,2.7-4,6.5s-4,6.2-4,7.3c0,0.5,0.3,0.7,0.9,0.8c0.6,0,0.9,0.2,0.9,0.5c0,0.4-0.4,0.6-1.3,0.6c-1.5,0-2.2-0.7-2.2-2
		C342.6,381.6,343,380.3,343.7,378.6z"/>
	<path d="M366.6,363.8l-9.4,0.4c-0.5,0-0.8-0.2-0.8-0.5c0-0.3,0.4-0.5,1.3-0.6c1.2-0.2,2.9-0.4,5.1-0.6c2.4-0.2,4.1-0.3,5.1-0.5
		l3.7-5.5c2-2.9,3.2-4.3,3.6-4.3c0.5,0,0.8,0.4,0.8,1.2c0,0.9-1.6,3.7-4.7,8.6c1.8-0.1,3.3-0.2,4.5-0.2c0.8,0,1.2,0.2,1.2,0.6
		c0,0.4-1,0.7-2.9,0.9l-4,0.2l-5.8,8.9c-3.7,5.8-5.5,9.3-5.5,10.4c0,0.5,0.3,0.8,0.9,0.8c0.6,0,0.9,0.2,0.9,0.5
		c0,0.4-0.4,0.6-1.1,0.6c-1.5,0-2.3-0.8-2.3-2.3c0-1.2,0.5-2.9,1.5-5.2l2.3-4.7l-7.7,7.4c-3.2,3.1-5.7,4.7-7.4,4.7
		c-0.2,0-0.3-0.1-0.3-0.4c0-0.4,0.2-0.6,0.5-0.7c0.6-0.1,1.5-0.5,2.7-1.1c1.2-0.7,3.8-3,7.8-6.9c3-2.8,4.8-4.7,5.6-5.5
		C363.4,368.4,364.9,366.4,366.6,363.8z"/>
	<path d="M379.5,378.6c-3,3.6-5.2,5.4-6.7,5.4c-1.1,0-1.6-0.7-1.6-2.2c0-1.7,0.6-3.7,1.9-5.8l3.4-4.8l-7.5,7.6
		c-4.2,3.9-7.2,5.9-8.9,5.9c-0.2,0-0.3-0.1-0.3-0.4c0-0.4,0.3-0.6,0.8-0.7c0.6-0.1,1.4-0.5,2.3-1c1-0.6,3.1-2.4,6.4-5.6
		c1.5-1.4,3.7-3.7,6.6-6.7c0.5-0.6,1.3-1.5,2.3-2.5c0.4-0.3,0.8-0.5,1.2-0.5c1,0,1.5,0.4,1.5,1.2c0,0.8-1.2,2.9-3.6,6.2
		s-3.6,5.6-3.6,7.1c0,0.4,0.2,0.5,0.5,0.5c1,0,3.4-2.4,7-7.3s5.6-7.3,6.1-7.3c0.2,0,0.5,0.2,0.7,0.5s0.4,0.6,0.4,0.9
		c0,0.5-1.3,2.7-4,6.5s-4,6.2-4,7.3c0,0.5,0.3,0.7,0.9,0.8c0.6,0,0.9,0.2,0.9,0.5c0,0.4-0.4,0.6-1.3,0.6c-1.5,0-2.2-0.7-2.2-2
		C378.4,381.6,378.8,380.3,379.5,378.6z"/>
	<path d="M396.2,370.5c-0.1-0.7-0.1-1.1-0.1-1.3c0-0.6,0.6-1.5,1.7-2.7c1.1-1.2,1.9-1.8,2.3-1.8c0.4,0,0.6,0.2,0.6,0.7
		c0,0.4-0.2,1-0.7,1.9c2,0,2.9,1,2.9,2.9c0,1.5-1.3,3.9-3.8,7.2c-2.5,3.3-3.8,5.2-3.8,5.6c0,0.4,0.2,0.6,0.5,0.6l0.8,0
		c0.2,0,0.4,0.2,0.4,0.5c0,0.4-0.5,0.7-1.5,0.7c-1.3,0-1.9-0.7-1.9-2.1c0-1.4,0.6-3.1,1.9-5.2c0.8-1.3,2-2.9,3.6-4.8
		c1.3-1.6,1.9-2.4,1.9-2.6c0-0.3-0.1-0.5-0.4-0.5c-0.3,0-0.8,0.1-1.5,0.4c-0.7,0.2-1.2,0.4-1.3,0.6c-8.1,9.4-13.5,14.1-16.3,14.1
		c-0.2,0-0.3-0.1-0.3-0.4c0-0.4,0.2-0.6,0.7-0.7c0.6-0.1,1.3-0.5,2.3-1c1.4-0.8,3.5-2.6,6.3-5.4C393,374.5,394.9,372.3,396.2,370.5z
		"/>
	<path d="M408.2,376.1l-5.4,5c-2.7,2.3-4.8,3.5-6.2,3.5c-0.2,0-0.3-0.1-0.3-0.4c0-0.4,0.2-0.7,0.5-0.8c1.1-0.2,2-0.6,2.7-1.1
		c1.3-0.9,3.4-2.7,6.4-5.6l6.9-6.9c1.3-1.4,2.1-2.1,2.4-2.1c0.4,0,0.9,0.3,1.4,0.9c1-0.9,1.9-1.4,2.7-1.4c1.2,0,1.8,0.8,1.8,2.3
		c0,2.3-1.5,5.5-4.5,9.5c-3.1,4-5.6,6.1-7.5,6.1c-1.8,0-2.7-1.1-2.7-3.4C406.5,380.5,407.1,378.6,408.2,376.1z M414.5,372.2
		c-3.5,3.8-5.3,6.9-5.3,9.3c0,1,0.4,1.5,1.2,1.5c1.3,0,3.3-1.9,6.1-5.8c-1.5-0.4-2.2-1.6-2.2-3.5
		C414.3,373.2,414.3,372.7,414.5,372.2z M417,376.2c0.6-0.7,1.3-1.8,1.9-3c0.7-1.5,1.1-2.6,1.1-3.5c0-0.8-0.3-1.2-0.9-1.2
		c-0.9,0-1.7,0.7-2.6,2c-0.9,1.3-1.3,2.5-1.3,3.6C415.3,375.1,415.9,375.9,417,376.2z"/>
	<path d="M422.6,384.9c-0.8,0-1.3-0.5-1.3-1.6c0-0.9,0.3-1.8,1-2.6c0.7-0.9,1.4-1.3,2.1-1.3c0.9,0,1.3,0.5,1.3,1.6
		c0,0.8-0.4,1.7-1.1,2.6C424,384.5,423.3,384.9,422.6,384.9z"/>
	<path d="M432.5,384.9c-0.8,0-1.3-0.5-1.3-1.6c0-0.9,0.3-1.8,1-2.6c0.7-0.9,1.4-1.3,2.1-1.3c0.9,0,1.3,0.5,1.3,1.6
		c0,0.8-0.4,1.7-1.1,2.6C433.8,384.5,433.1,384.9,432.5,384.9z"/>
	<path d="M442.3,384.9c-0.8,0-1.3-0.5-1.3-1.6c0-0.9,0.3-1.8,1-2.6c0.7-0.9,1.4-1.3,2.1-1.3c0.9,0,1.3,0.5,1.3,1.6
		c0,0.8-0.4,1.7-1.1,2.6C443.7,384.5,443,384.9,442.3,384.9z"/>
	<path d="M452.8,384.9c-0.8,0-1.3-0.5-1.3-1.6c0-0.9,0.3-1.8,1-2.6s1.4-1.3,2.1-1.3c0.9,0,1.3,0.5,1.3,1.6c0,0.9-0.4,1.7-1.1,2.6
		C454.2,384.5,453.5,384.9,452.8,384.9z M456.4,377.8c-0.4,0-0.5-0.3-0.5-0.9c0-0.5,0.3-1.3,1-2.4c1-1.7,4.2-6.5,9.6-14.2
		c6-8.7,9.4-13.1,10.1-13.1c0.5,0,0.8,0.4,0.8,1.2c0,1.9-6.8,11.5-20.3,29C456.8,377.7,456.6,377.8,456.4,377.8z"/>
	<path d="M465.5,384.9c-0.8,0-1.3-0.5-1.3-1.6c0-0.9,0.3-1.8,1-2.6s1.4-1.3,2.1-1.3c0.9,0,1.3,0.5,1.3,1.6c0,0.9-0.4,1.7-1.1,2.6
		C466.9,384.5,466.2,384.9,465.5,384.9z M469.1,377.8c-0.4,0-0.5-0.3-0.5-0.9c0-0.5,0.3-1.3,1-2.4c1-1.7,4.2-6.5,9.6-14.2
		c6-8.7,9.4-13.1,10.1-13.1c0.5,0,0.8,0.4,0.8,1.2c0,1.9-6.8,11.5-20.3,29C469.5,377.7,469.3,377.8,469.1,377.8z"/>
	<path d="M478.2,384.9c-0.8,0-1.3-0.5-1.3-1.6c0-0.9,0.3-1.8,1-2.6s1.4-1.3,2.1-1.3c0.9,0,1.3,0.5,1.3,1.6c0,0.9-0.4,1.7-1.1,2.6
		C479.6,384.5,478.9,384.9,478.2,384.9z M481.8,377.8c-0.4,0-0.5-0.3-0.5-0.9c0-0.5,0.3-1.3,1-2.4c1-1.7,4.2-6.5,9.6-14.2
		c6-8.7,9.4-13.1,10.1-13.1c0.5,0,0.8,0.4,0.8,1.2c0,1.9-6.8,11.5-20.3,29C482.2,377.7,482,377.8,481.8,377.8z"/>
</g>
</svg>
